<svg width="180" height="180" viewBox="0 0 180 180" fill="none" xmlns="http://www.w3.org/2000/svg">
  <!-- Background -->
  <rect width="180" height="180" rx="40" fill="#0B0B0C"/>
  
  <!-- Logo -->
  <g transform="translate(40, 40) scale(2.5)">
    <circle cx="20" cy="20" r="20" fill="#6366F1" />
    <path d="M12 14C12 10.6863 14.6863 8 18 8H22C25.3137 8 28 10.6863 28 14V20C28 23.3137 25.3137 26 22 26H18C14.6863 26 12 23.3137 12 20V14Z" fill="#6366F1" />
    <path d="M20 28C26.6274 28 32 25.3137 32 22V30C32 33.3137 26.6274 36 20 36C13.3726 36 8 33.3137 8 30V22C8 25.3137 13.3726 28 20 28Z" fill="#6366F1" />
    <path d="M17 16C17 17.1046 16.1046 18 15 18C13.8954 18 13 17.1046 13 16C13 14.8954 13.8954 14 15 14C16.1046 14 17 14.8954 17 16Z" fill="white" />
    <path d="M27 16C27 17.1046 26.1046 18 25 18C23.8954 18 23 17.1046 23 16C23 14.8954 23.8954 14 25 14C26.1046 14 27 14.8954 27 16Z" fill="white" />
    <path d="M24 22C24 23.1046 22.2091 24 20 24C17.7909 24 16 23.1046 16 22" stroke="white" stroke-width="2" stroke-linecap="round" />
  </g>
</svg>