<svg width="1200" height="630" viewBox="0 0 1200 630" fill="none" xmlns="http://www.w3.org/2000/svg">
  <!-- Background -->
  <rect width="1200" height="630" fill="#0B0B0C"/>
  
  <!-- Border -->
  <rect x="10" y="10" width="1180" height="610" stroke="#6366F1" stroke-width="4" rx="16" />
  
  <!-- Logo -->
  <g transform="translate(500, 200) scale(4)">
    <circle cx="20" cy="20" r="20" fill="#6366F1" />
    <path d="M12 14C12 10.6863 14.6863 8 18 8H22C25.3137 8 28 10.6863 28 14V20C28 23.3137 25.3137 26 22 26H18C14.6863 26 12 23.3137 12 20V14Z" fill="#6366F1" />
    <path d="M20 28C26.6274 28 32 25.3137 32 22V30C32 33.3137 26.6274 36 20 36C13.3726 36 8 33.3137 8 30V22C8 25.3137 13.3726 28 20 28Z" fill="#6366F1" />
    <path d="M17 16C17 17.1046 16.1046 18 15 18C13.8954 18 13 17.1046 13 16C13 14.8954 13.8954 14 15 14C16.1046 14 17 14.8954 17 16Z" fill="white" />
    <path d="M27 16C27 17.1046 26.1046 18 25 18C23.8954 18 23 17.1046 23 16C23 14.8954 23.8954 14 25 14C26.1046 14 27 14.8954 27 16Z" fill="white" />
    <path d="M24 22C24 23.1046 22.2091 24 20 24C17.7909 24 16 23.1046 16 22" stroke="white" stroke-width="2" stroke-linecap="round" />
  </g>
  
  <!-- Title -->
  <text x="600" y="400" font-family="Inter, sans-serif" font-size="72" font-weight="700" fill="white" text-anchor="middle">Milo Newsletter</text>
  
  <!-- Subtitle -->
  <text x="600" y="480" font-family="Inter, sans-serif" font-size="32" font-weight="400" fill="#C7CBD1" text-anchor="middle">Curated insights for professionals</text>
  
  <!-- Decorative Elements -->
  <circle cx="200" cy="100" r="40" fill="#6366F1" opacity="0.1" />
  <circle cx="1000" cy="500" r="60" fill="#6366F1" opacity="0.1" />
  <circle cx="900" cy="150" r="30" fill="#6366F1" opacity="0.1" />
  <circle cx="300" cy="500" r="50" fill="#6366F1" opacity="0.1" />
</svg>